<?xml version="1.0" encoding="utf-8" standalone="no"?>
<!DOCTYPE svg PUBLIC "-//W3C//DTD SVG 1.1//EN"
  "http://www.w3.org/Graphics/SVG/1.1/DTD/svg11.dtd">
<!-- Created with matplotlib (https://matplotlib.org/) -->
<svg height="288pt" version="1.1" viewBox="0 0 432 288" width="432pt" xmlns="http://www.w3.org/2000/svg" xmlns:xlink="http://www.w3.org/1999/xlink">
 <defs>
  <style type="text/css">
*{stroke-linecap:butt;stroke-linejoin:round;}
  </style>
 </defs>
 <g id="figure_1">
  <g id="patch_1">
   <path d="M 0 288 
L 432 288 
L 432 0 
L 0 0 
z
" style="fill:#ffffff;"/>
  </g>
  <g id="axes_1">
   <g id="patch_2">
    <path d="M 54 252 
L 388.8 252 
L 388.8 34.56 
L 54 34.56 
z
" style="fill:#ffffff;"/>
   </g>
   <g id="matplotlib.axis_1">
    <g id="xtick_1">
     <g id="line2d_1">
      <defs>
       <path d="M 0 0 
L 0 3.5 
" id="mea04d83400" style="stroke:#000000;stroke-width:0.8;"/>
      </defs>
      <g>
       <use style="stroke:#000000;stroke-width:0.8;" x="69.218182" xlink:href="#mea04d83400" y="252"/>
      </g>
     </g>
     <g id="text_1">
      <!-- 0 -->
      <defs>
       <path d="M 31.78125 66.40625 
Q 24.171875 66.40625 20.328125 58.90625 
Q 16.5 51.421875 16.5 36.375 
Q 16.5 21.390625 20.328125 13.890625 
Q 24.171875 6.390625 31.78125 6.390625 
Q 39.453125 6.390625 43.28125 13.890625 
Q 47.125 21.390625 47.125 36.375 
Q 47.125 51.421875 43.28125 58.90625 
Q 39.453125 66.40625 31.78125 66.40625 
z
M 31.78125 74.21875 
Q 44.046875 74.21875 50.515625 64.515625 
Q 56.984375 54.828125 56.984375 36.375 
Q 56.984375 17.96875 50.515625 8.265625 
Q 44.046875 -1.421875 31.78125 -1.421875 
Q 19.53125 -1.421875 13.0625 8.265625 
Q 6.59375 17.96875 6.59375 36.375 
Q 6.59375 54.828125 13.0625 64.515625 
Q 19.53125 74.21875 31.78125 74.21875 
z
" id="DejaVuSans-48"/>
      </defs>
      <g transform="translate(66.036932 266.598437)scale(0.1 -0.1)">
       <use xlink:href="#DejaVuSans-48"/>
      </g>
     </g>
    </g>
    <g id="xtick_2">
     <g id="line2d_2">
      <g>
       <use style="stroke:#000000;stroke-width:0.8;" x="130.151843" xlink:href="#mea04d83400" y="252"/>
      </g>
     </g>
     <g id="text_2">
      <!-- 200 -->
      <defs>
       <path d="M 19.1875 8.296875 
L 53.609375 8.296875 
L 53.609375 0 
L 7.328125 0 
L 7.328125 8.296875 
Q 12.9375 14.109375 22.625 23.890625 
Q 32.328125 33.6875 34.8125 36.53125 
Q 39.546875 41.84375 41.421875 45.53125 
Q 43.3125 49.21875 43.3125 52.78125 
Q 43.3125 58.59375 39.234375 62.25 
Q 35.15625 65.921875 28.609375 65.921875 
Q 23.96875 65.921875 18.8125 64.3125 
Q 13.671875 62.703125 7.8125 59.421875 
L 7.8125 69.390625 
Q 13.765625 71.78125 18.9375 73 
Q 24.125 74.21875 28.421875 74.21875 
Q 39.75 74.21875 46.484375 68.546875 
Q 53.21875 62.890625 53.21875 53.421875 
Q 53.21875 48.921875 51.53125 44.890625 
Q 49.859375 40.875 45.40625 35.40625 
Q 44.1875 33.984375 37.640625 27.21875 
Q 31.109375 20.453125 19.1875 8.296875 
z
" id="DejaVuSans-50"/>
      </defs>
      <g transform="translate(120.608093 266.598437)scale(0.1 -0.1)">
       <use xlink:href="#DejaVuSans-50"/>
       <use x="63.623047" xlink:href="#DejaVuSans-48"/>
       <use x="127.246094" xlink:href="#DejaVuSans-48"/>
      </g>
     </g>
    </g>
    <g id="xtick_3">
     <g id="line2d_3">
      <g>
       <use style="stroke:#000000;stroke-width:0.8;" x="191.085504" xlink:href="#mea04d83400" y="252"/>
      </g>
     </g>
     <g id="text_3">
      <!-- 400 -->
      <defs>
       <path d="M 37.796875 64.3125 
L 12.890625 25.390625 
L 37.796875 25.390625 
z
M 35.203125 72.90625 
L 47.609375 72.90625 
L 47.609375 25.390625 
L 58.015625 25.390625 
L 58.015625 17.1875 
L 47.609375 17.1875 
L 47.609375 0 
L 37.796875 0 
L 37.796875 17.1875 
L 4.890625 17.1875 
L 4.890625 26.703125 
z
" id="DejaVuSans-52"/>
      </defs>
      <g transform="translate(181.541754 266.598437)scale(0.1 -0.1)">
       <use xlink:href="#DejaVuSans-52"/>
       <use x="63.623047" xlink:href="#DejaVuSans-48"/>
       <use x="127.246094" xlink:href="#DejaVuSans-48"/>
      </g>
     </g>
    </g>
    <g id="xtick_4">
     <g id="line2d_4">
      <g>
       <use style="stroke:#000000;stroke-width:0.8;" x="252.019165" xlink:href="#mea04d83400" y="252"/>
      </g>
     </g>
     <g id="text_4">
      <!-- 600 -->
      <defs>
       <path d="M 33.015625 40.375 
Q 26.375 40.375 22.484375 35.828125 
Q 18.609375 31.296875 18.609375 23.390625 
Q 18.609375 15.53125 22.484375 10.953125 
Q 26.375 6.390625 33.015625 6.390625 
Q 39.65625 6.390625 43.53125 10.953125 
Q 47.40625 15.53125 47.40625 23.390625 
Q 47.40625 31.296875 43.53125 35.828125 
Q 39.65625 40.375 33.015625 40.375 
z
M 52.59375 71.296875 
L 52.59375 62.3125 
Q 48.875 64.0625 45.09375 64.984375 
Q 41.3125 65.921875 37.59375 65.921875 
Q 27.828125 65.921875 22.671875 59.328125 
Q 17.53125 52.734375 16.796875 39.40625 
Q 19.671875 43.65625 24.015625 45.921875 
Q 28.375 48.1875 33.59375 48.1875 
Q 44.578125 48.1875 50.953125 41.515625 
Q 57.328125 34.859375 57.328125 23.390625 
Q 57.328125 12.15625 50.6875 5.359375 
Q 44.046875 -1.421875 33.015625 -1.421875 
Q 20.359375 -1.421875 13.671875 8.265625 
Q 6.984375 17.96875 6.984375 36.375 
Q 6.984375 53.65625 15.1875 63.9375 
Q 23.390625 74.21875 37.203125 74.21875 
Q 40.921875 74.21875 44.703125 73.484375 
Q 48.484375 72.75 52.59375 71.296875 
z
" id="DejaVuSans-54"/>
      </defs>
      <g transform="translate(242.475415 266.598437)scale(0.1 -0.1)">
       <use xlink:href="#DejaVuSans-54"/>
       <use x="63.623047" xlink:href="#DejaVuSans-48"/>
       <use x="127.246094" xlink:href="#DejaVuSans-48"/>
      </g>
     </g>
    </g>
    <g id="xtick_5">
     <g id="line2d_5">
      <g>
       <use style="stroke:#000000;stroke-width:0.8;" x="312.952826" xlink:href="#mea04d83400" y="252"/>
      </g>
     </g>
     <g id="text_5">
      <!-- 800 -->
      <defs>
       <path d="M 31.78125 34.625 
Q 24.75 34.625 20.71875 30.859375 
Q 16.703125 27.09375 16.703125 20.515625 
Q 16.703125 13.921875 20.71875 10.15625 
Q 24.75 6.390625 31.78125 6.390625 
Q 38.8125 6.390625 42.859375 10.171875 
Q 46.921875 13.96875 46.921875 20.515625 
Q 46.921875 27.09375 42.890625 30.859375 
Q 38.875 34.625 31.78125 34.625 
z
M 21.921875 38.8125 
Q 15.578125 40.375 12.03125 44.71875 
Q 8.5 49.078125 8.5 55.328125 
Q 8.5 64.0625 14.71875 69.140625 
Q 20.953125 74.21875 31.78125 74.21875 
Q 42.671875 74.21875 48.875 69.140625 
Q 55.078125 64.0625 55.078125 55.328125 
Q 55.078125 49.078125 51.53125 44.71875 
Q 48 40.375 41.703125 38.8125 
Q 48.828125 37.15625 52.796875 32.3125 
Q 56.78125 27.484375 56.78125 20.515625 
Q 56.78125 9.90625 50.3125 4.234375 
Q 43.84375 -1.421875 31.78125 -1.421875 
Q 19.734375 -1.421875 13.25 4.234375 
Q 6.78125 9.90625 6.78125 20.515625 
Q 6.78125 27.484375 10.78125 32.3125 
Q 14.796875 37.15625 21.921875 38.8125 
z
M 18.3125 54.390625 
Q 18.3125 48.734375 21.84375 45.5625 
Q 25.390625 42.390625 31.78125 42.390625 
Q 38.140625 42.390625 41.71875 45.5625 
Q 45.3125 48.734375 45.3125 54.390625 
Q 45.3125 60.0625 41.71875 63.234375 
Q 38.140625 66.40625 31.78125 66.40625 
Q 25.390625 66.40625 21.84375 63.234375 
Q 18.3125 60.0625 18.3125 54.390625 
z
" id="DejaVuSans-56"/>
      </defs>
      <g transform="translate(303.409076 266.598437)scale(0.1 -0.1)">
       <use xlink:href="#DejaVuSans-56"/>
       <use x="63.623047" xlink:href="#DejaVuSans-48"/>
       <use x="127.246094" xlink:href="#DejaVuSans-48"/>
      </g>
     </g>
    </g>
    <g id="xtick_6">
     <g id="line2d_6">
      <g>
       <use style="stroke:#000000;stroke-width:0.8;" x="373.886486" xlink:href="#mea04d83400" y="252"/>
      </g>
     </g>
     <g id="text_6">
      <!-- 1000 -->
      <defs>
       <path d="M 12.40625 8.296875 
L 28.515625 8.296875 
L 28.515625 63.921875 
L 10.984375 60.40625 
L 10.984375 69.390625 
L 28.421875 72.90625 
L 38.28125 72.90625 
L 38.28125 8.296875 
L 54.390625 8.296875 
L 54.390625 0 
L 12.40625 0 
z
" id="DejaVuSans-49"/>
      </defs>
      <g transform="translate(361.161486 266.598437)scale(0.1 -0.1)">
       <use xlink:href="#DejaVuSans-49"/>
       <use x="63.623047" xlink:href="#DejaVuSans-48"/>
       <use x="127.246094" xlink:href="#DejaVuSans-48"/>
       <use x="190.869141" xlink:href="#DejaVuSans-48"/>
      </g>
     </g>
    </g>
    <g id="text_7">
     <!-- Mondovo Rank -->
     <defs>
      <path d="M 9.8125 72.90625 
L 24.515625 72.90625 
L 43.109375 23.296875 
L 61.8125 72.90625 
L 76.515625 72.90625 
L 76.515625 0 
L 66.890625 0 
L 66.890625 64.015625 
L 48.09375 14.015625 
L 38.1875 14.015625 
L 19.390625 64.015625 
L 19.390625 0 
L 9.8125 0 
z
" id="DejaVuSans-77"/>
      <path d="M 30.609375 48.390625 
Q 23.390625 48.390625 19.1875 42.75 
Q 14.984375 37.109375 14.984375 27.296875 
Q 14.984375 17.484375 19.15625 11.84375 
Q 23.34375 6.203125 30.609375 6.203125 
Q 37.796875 6.203125 41.984375 11.859375 
Q 46.1875 17.53125 46.1875 27.296875 
Q 46.1875 37.015625 41.984375 42.703125 
Q 37.796875 48.390625 30.609375 48.390625 
z
M 30.609375 56 
Q 42.328125 56 49.015625 48.375 
Q 55.71875 40.765625 55.71875 27.296875 
Q 55.71875 13.875 49.015625 6.21875 
Q 42.328125 -1.421875 30.609375 -1.421875 
Q 18.84375 -1.421875 12.171875 6.21875 
Q 5.515625 13.875 5.515625 27.296875 
Q 5.515625 40.765625 12.171875 48.375 
Q 18.84375 56 30.609375 56 
z
" id="DejaVuSans-111"/>
      <path d="M 54.890625 33.015625 
L 54.890625 0 
L 45.90625 0 
L 45.90625 32.71875 
Q 45.90625 40.484375 42.875 44.328125 
Q 39.84375 48.1875 33.796875 48.1875 
Q 26.515625 48.1875 22.3125 43.546875 
Q 18.109375 38.921875 18.109375 30.90625 
L 18.109375 0 
L 9.078125 0 
L 9.078125 54.6875 
L 18.109375 54.6875 
L 18.109375 46.1875 
Q 21.34375 51.125 25.703125 53.5625 
Q 30.078125 56 35.796875 56 
Q 45.21875 56 50.046875 50.171875 
Q 54.890625 44.34375 54.890625 33.015625 
z
" id="DejaVuSans-110"/>
      <path d="M 45.40625 46.390625 
L 45.40625 75.984375 
L 54.390625 75.984375 
L 54.390625 0 
L 45.40625 0 
L 45.40625 8.203125 
Q 42.578125 3.328125 38.25 0.953125 
Q 33.9375 -1.421875 27.875 -1.421875 
Q 17.96875 -1.421875 11.734375 6.484375 
Q 5.515625 14.40625 5.515625 27.296875 
Q 5.515625 40.1875 11.734375 48.09375 
Q 17.96875 56 27.875 56 
Q 33.9375 56 38.25 53.625 
Q 42.578125 51.265625 45.40625 46.390625 
z
M 14.796875 27.296875 
Q 14.796875 17.390625 18.875 11.75 
Q 22.953125 6.109375 30.078125 6.109375 
Q 37.203125 6.109375 41.296875 11.75 
Q 45.40625 17.390625 45.40625 27.296875 
Q 45.40625 37.203125 41.296875 42.84375 
Q 37.203125 48.484375 30.078125 48.484375 
Q 22.953125 48.484375 18.875 42.84375 
Q 14.796875 37.203125 14.796875 27.296875 
z
" id="DejaVuSans-100"/>
      <path d="M 2.984375 54.6875 
L 12.5 54.6875 
L 29.59375 8.796875 
L 46.6875 54.6875 
L 56.203125 54.6875 
L 35.6875 0 
L 23.484375 0 
z
" id="DejaVuSans-118"/>
      <path id="DejaVuSans-32"/>
      <path d="M 44.390625 34.1875 
Q 47.5625 33.109375 50.5625 29.59375 
Q 53.5625 26.078125 56.59375 19.921875 
L 66.609375 0 
L 56 0 
L 46.6875 18.703125 
Q 43.0625 26.03125 39.671875 28.421875 
Q 36.28125 30.8125 30.421875 30.8125 
L 19.671875 30.8125 
L 19.671875 0 
L 9.8125 0 
L 9.8125 72.90625 
L 32.078125 72.90625 
Q 44.578125 72.90625 50.734375 67.671875 
Q 56.890625 62.453125 56.890625 51.90625 
Q 56.890625 45.015625 53.6875 40.46875 
Q 50.484375 35.9375 44.390625 34.1875 
z
M 19.671875 64.796875 
L 19.671875 38.921875 
L 32.078125 38.921875 
Q 39.203125 38.921875 42.84375 42.21875 
Q 46.484375 45.515625 46.484375 51.90625 
Q 46.484375 58.296875 42.84375 61.546875 
Q 39.203125 64.796875 32.078125 64.796875 
z
" id="DejaVuSans-82"/>
      <path d="M 34.28125 27.484375 
Q 23.390625 27.484375 19.1875 25 
Q 14.984375 22.515625 14.984375 16.5 
Q 14.984375 11.71875 18.140625 8.90625 
Q 21.296875 6.109375 26.703125 6.109375 
Q 34.1875 6.109375 38.703125 11.40625 
Q 43.21875 16.703125 43.21875 25.484375 
L 43.21875 27.484375 
z
M 52.203125 31.203125 
L 52.203125 0 
L 43.21875 0 
L 43.21875 8.296875 
Q 40.140625 3.328125 35.546875 0.953125 
Q 30.953125 -1.421875 24.3125 -1.421875 
Q 15.921875 -1.421875 10.953125 3.296875 
Q 6 8.015625 6 15.921875 
Q 6 25.140625 12.171875 29.828125 
Q 18.359375 34.515625 30.609375 34.515625 
L 43.21875 34.515625 
L 43.21875 35.40625 
Q 43.21875 41.609375 39.140625 45 
Q 35.0625 48.390625 27.6875 48.390625 
Q 23 48.390625 18.546875 47.265625 
Q 14.109375 46.140625 10.015625 43.890625 
L 10.015625 52.203125 
Q 14.9375 54.109375 19.578125 55.046875 
Q 24.21875 56 28.609375 56 
Q 40.484375 56 46.34375 49.84375 
Q 52.203125 43.703125 52.203125 31.203125 
z
" id="DejaVuSans-97"/>
      <path d="M 9.078125 75.984375 
L 18.109375 75.984375 
L 18.109375 31.109375 
L 44.921875 54.6875 
L 56.390625 54.6875 
L 27.390625 29.109375 
L 57.625 0 
L 45.90625 0 
L 18.109375 26.703125 
L 18.109375 0 
L 9.078125 0 
z
" id="DejaVuSans-107"/>
     </defs>
     <g transform="translate(184.526563 280.276563)scale(0.1 -0.1)">
      <use xlink:href="#DejaVuSans-77"/>
      <use x="86.279297" xlink:href="#DejaVuSans-111"/>
      <use x="147.460938" xlink:href="#DejaVuSans-110"/>
      <use x="210.839844" xlink:href="#DejaVuSans-100"/>
      <use x="274.316406" xlink:href="#DejaVuSans-111"/>
      <use x="335.498047" xlink:href="#DejaVuSans-118"/>
      <use x="394.677734" xlink:href="#DejaVuSans-111"/>
      <use x="455.859375" xlink:href="#DejaVuSans-32"/>
      <use x="487.646484" xlink:href="#DejaVuSans-82"/>
      <use x="554.878906" xlink:href="#DejaVuSans-97"/>
      <use x="616.158203" xlink:href="#DejaVuSans-110"/>
      <use x="679.537109" xlink:href="#DejaVuSans-107"/>
     </g>
    </g>
   </g>
   <g id="matplotlib.axis_2">
    <g id="ytick_1">
     <g id="line2d_7">
      <defs>
       <path d="M 0 0 
L -3.5 0 
" id="m4ca50c68fd" style="stroke:#000000;stroke-width:0.8;"/>
      </defs>
      <g>
       <use style="stroke:#000000;stroke-width:0.8;" x="54" xlink:href="#m4ca50c68fd" y="242.116364"/>
      </g>
     </g>
     <g id="text_8">
      <!-- 0.0 -->
      <defs>
       <path d="M 10.6875 12.40625 
L 21 12.40625 
L 21 0 
L 10.6875 0 
z
" id="DejaVuSans-46"/>
      </defs>
      <g transform="translate(31.096875 245.915582)scale(0.1 -0.1)">
       <use xlink:href="#DejaVuSans-48"/>
       <use x="63.623047" xlink:href="#DejaVuSans-46"/>
       <use x="95.410156" xlink:href="#DejaVuSans-48"/>
      </g>
     </g>
    </g>
    <g id="ytick_2">
     <g id="line2d_8">
      <g>
       <use style="stroke:#000000;stroke-width:0.8;" x="54" xlink:href="#m4ca50c68fd" y="204.081898"/>
      </g>
     </g>
     <g id="text_9">
      <!-- 0.5 -->
      <defs>
       <path d="M 10.796875 72.90625 
L 49.515625 72.90625 
L 49.515625 64.59375 
L 19.828125 64.59375 
L 19.828125 46.734375 
Q 21.96875 47.46875 24.109375 47.828125 
Q 26.265625 48.1875 28.421875 48.1875 
Q 40.625 48.1875 47.75 41.5 
Q 54.890625 34.8125 54.890625 23.390625 
Q 54.890625 11.625 47.5625 5.09375 
Q 40.234375 -1.421875 26.90625 -1.421875 
Q 22.3125 -1.421875 17.546875 -0.640625 
Q 12.796875 0.140625 7.71875 1.703125 
L 7.71875 11.625 
Q 12.109375 9.234375 16.796875 8.0625 
Q 21.484375 6.890625 26.703125 6.890625 
Q 35.15625 6.890625 40.078125 11.328125 
Q 45.015625 15.765625 45.015625 23.390625 
Q 45.015625 31 40.078125 35.4375 
Q 35.15625 39.890625 26.703125 39.890625 
Q 22.75 39.890625 18.8125 39.015625 
Q 14.890625 38.140625 10.796875 36.28125 
z
" id="DejaVuSans-53"/>
      </defs>
      <g transform="translate(31.096875 207.881116)scale(0.1 -0.1)">
       <use xlink:href="#DejaVuSans-48"/>
       <use x="63.623047" xlink:href="#DejaVuSans-46"/>
       <use x="95.410156" xlink:href="#DejaVuSans-53"/>
      </g>
     </g>
    </g>
    <g id="ytick_3">
     <g id="line2d_9">
      <g>
       <use style="stroke:#000000;stroke-width:0.8;" x="54" xlink:href="#m4ca50c68fd" y="166.047431"/>
      </g>
     </g>
     <g id="text_10">
      <!-- 1.0 -->
      <g transform="translate(31.096875 169.84665)scale(0.1 -0.1)">
       <use xlink:href="#DejaVuSans-49"/>
       <use x="63.623047" xlink:href="#DejaVuSans-46"/>
       <use x="95.410156" xlink:href="#DejaVuSans-48"/>
      </g>
     </g>
    </g>
    <g id="ytick_4">
     <g id="line2d_10">
      <g>
       <use style="stroke:#000000;stroke-width:0.8;" x="54" xlink:href="#m4ca50c68fd" y="128.012965"/>
      </g>
     </g>
     <g id="text_11">
      <!-- 1.5 -->
      <g transform="translate(31.096875 131.812184)scale(0.1 -0.1)">
       <use xlink:href="#DejaVuSans-49"/>
       <use x="63.623047" xlink:href="#DejaVuSans-46"/>
       <use x="95.410156" xlink:href="#DejaVuSans-53"/>
      </g>
     </g>
    </g>
    <g id="ytick_5">
     <g id="line2d_11">
      <g>
       <use style="stroke:#000000;stroke-width:0.8;" x="54" xlink:href="#m4ca50c68fd" y="89.978499"/>
      </g>
     </g>
     <g id="text_12">
      <!-- 2.0 -->
      <g transform="translate(31.096875 93.777718)scale(0.1 -0.1)">
       <use xlink:href="#DejaVuSans-50"/>
       <use x="63.623047" xlink:href="#DejaVuSans-46"/>
       <use x="95.410156" xlink:href="#DejaVuSans-48"/>
      </g>
     </g>
    </g>
    <g id="ytick_6">
     <g id="line2d_12">
      <g>
       <use style="stroke:#000000;stroke-width:0.8;" x="54" xlink:href="#m4ca50c68fd" y="51.944033"/>
      </g>
     </g>
     <g id="text_13">
      <!-- 2.5 -->
      <g transform="translate(31.096875 55.743252)scale(0.1 -0.1)">
       <use xlink:href="#DejaVuSans-50"/>
       <use x="63.623047" xlink:href="#DejaVuSans-46"/>
       <use x="95.410156" xlink:href="#DejaVuSans-53"/>
      </g>
     </g>
    </g>
    <g id="text_14">
     <!-- Ad Revenue -->
     <defs>
      <path d="M 34.1875 63.1875 
L 20.796875 26.90625 
L 47.609375 26.90625 
z
M 28.609375 72.90625 
L 39.796875 72.90625 
L 67.578125 0 
L 57.328125 0 
L 50.6875 18.703125 
L 17.828125 18.703125 
L 11.1875 0 
L 0.78125 0 
z
" id="DejaVuSans-65"/>
      <path d="M 56.203125 29.59375 
L 56.203125 25.203125 
L 14.890625 25.203125 
Q 15.484375 15.921875 20.484375 11.0625 
Q 25.484375 6.203125 34.421875 6.203125 
Q 39.59375 6.203125 44.453125 7.46875 
Q 49.3125 8.734375 54.109375 11.28125 
L 54.109375 2.78125 
Q 49.265625 0.734375 44.1875 -0.34375 
Q 39.109375 -1.421875 33.890625 -1.421875 
Q 20.796875 -1.421875 13.15625 6.1875 
Q 5.515625 13.8125 5.515625 26.8125 
Q 5.515625 40.234375 12.765625 48.109375 
Q 20.015625 56 32.328125 56 
Q 43.359375 56 49.78125 48.890625 
Q 56.203125 41.796875 56.203125 29.59375 
z
M 47.21875 32.234375 
Q 47.125 39.59375 43.09375 43.984375 
Q 39.0625 48.390625 32.421875 48.390625 
Q 24.90625 48.390625 20.390625 44.140625 
Q 15.875 39.890625 15.1875 32.171875 
z
" id="DejaVuSans-101"/>
      <path d="M 8.5 21.578125 
L 8.5 54.6875 
L 17.484375 54.6875 
L 17.484375 21.921875 
Q 17.484375 14.15625 20.5 10.265625 
Q 23.53125 6.390625 29.59375 6.390625 
Q 36.859375 6.390625 41.078125 11.03125 
Q 45.3125 15.671875 45.3125 23.6875 
L 45.3125 54.6875 
L 54.296875 54.6875 
L 54.296875 0 
L 45.3125 0 
L 45.3125 8.40625 
Q 42.046875 3.421875 37.71875 1 
Q 33.40625 -1.421875 27.6875 -1.421875 
Q 18.265625 -1.421875 13.375 4.4375 
Q 8.5 10.296875 8.5 21.578125 
z
M 31.109375 56 
z
" id="DejaVuSans-117"/>
     </defs>
     <g transform="translate(25.017187 173.151875)rotate(-90)scale(0.1 -0.1)">
      <use xlink:href="#DejaVuSans-65"/>
      <use x="66.658203" xlink:href="#DejaVuSans-100"/>
      <use x="130.134766" xlink:href="#DejaVuSans-32"/>
      <use x="161.921875" xlink:href="#DejaVuSans-82"/>
      <use x="226.904297" xlink:href="#DejaVuSans-101"/>
      <use x="288.427734" xlink:href="#DejaVuSans-118"/>
      <use x="347.607422" xlink:href="#DejaVuSans-101"/>
      <use x="409.130859" xlink:href="#DejaVuSans-110"/>
      <use x="472.509766" xlink:href="#DejaVuSans-117"/>
      <use x="535.888672" xlink:href="#DejaVuSans-101"/>
     </g>
    </g>
    <g id="text_15">
     <!-- 1e6 -->
     <g transform="translate(54 31.56)scale(0.1 -0.1)">
      <use xlink:href="#DejaVuSans-49"/>
      <use x="63.623047" xlink:href="#DejaVuSans-101"/>
      <use x="125.146484" xlink:href="#DejaVuSans-54"/>
     </g>
    </g>
   </g>
   <g id="line2d_13">
    <path clip-path="url(#p8feb58ef65)" d="M 69.218182 211.536653 
L 69.52285 104.302279 
L 69.827518 44.443636 
L 70.132187 159.18145 
L 70.436855 136.266444 
L 70.741523 210.737929 
L 71.046192 221.197407 
L 71.35086 131.892481 
L 71.655528 186.662112 
L 71.960197 205.489173 
L 72.874201 227.054715 
L 73.17887 237.324021 
L 73.483538 191.168436 
L 73.788206 219.161803 
L 74.092875 230.919017 
L 74.397543 161.748776 
L 74.702211 202.047054 
L 75.00688 208.229176 
L 75.311548 221.50929 
L 75.616216 228.378314 
L 75.920885 202.444894 
L 76.530221 218.163778 
L 77.139558 224.339054 
L 77.444226 233.321274 
L 77.748894 167.960565 
L 78.053563 218.417088 
L 78.662899 234.777233 
L 78.967568 238.2939 
L 79.272236 238.446798 
L 79.576904 239.822885 
L 79.881572 140.073695 
L 80.186241 165.804011 
L 80.490909 204.587756 
L 80.795577 216.13502 
L 81.100246 221.030056 
L 81.404914 223.163789 
L 81.709582 226.427146 
L 82.014251 226.678174 
L 82.318919 226.678174 
L 82.623587 230.443586 
L 82.928256 231.698723 
L 83.232924 232.075265 
L 83.84226 233.832457 
L 84.146929 236.844787 
L 84.451597 237.97441 
L 84.756265 238.350951 
L 85.060934 240.359171 
L 85.365602 241.614309 
L 85.67027 241.99085 
L 85.974939 148.357601 
L 86.584275 202.887615 
L 86.888943 208.843813 
L 87.193612 211.513832 
L 87.49828 218.086188 
L 88.412285 219.83197 
L 88.716953 222.912762 
L 89.021622 223.118148 
L 89.32629 225.685474 
L 89.630958 226.609712 
L 89.935627 226.609712 
L 90.544963 229.382424 
L 91.458968 229.793197 
L 91.763636 233.59284 
L 92.068305 234.517077 
L 92.372973 234.61977 
L 92.677641 236.057473 
L 92.98231 236.160166 
L 93.286978 236.570938 
L 93.896314 236.673632 
L 94.200983 237.392483 
L 95.114988 242.116364 
L 95.419656 217.180968 
L 95.724324 218.268753 
L 96.028993 221.95049 
L 96.333661 222.619896 
L 96.638329 225.883254 
L 96.942998 227.640446 
L 97.552334 227.724122 
L 98.161671 229.56499 
L 98.466339 229.816017 
L 98.771007 231.322182 
L 99.075676 231.405858 
L 99.380344 232.075265 
L 99.685012 232.409968 
L 100.294349 234.501864 
L 100.599017 234.501864 
L 101.208354 234.836567 
L 101.81769 235.505973 
L 102.122359 235.673325 
L 102.427027 236.761111 
L 103.036364 237.17949 
L 103.6457 237.346842 
L 104.559705 239.104034 
L 104.864373 239.355061 
L 105.47371 240.610199 
L 106.387715 241.028578 
L 106.692383 241.028578 
L 107.30172 241.614309 
L 107.606388 241.78166 
L 107.911057 211.68803 
L 108.215725 213.959829 
L 108.520393 214.717095 
L 109.12973 223.597762 
L 109.434398 224.423871 
L 109.739066 225.663034 
L 110.043735 225.731876 
L 110.348403 226.764512 
L 110.653071 227.039882 
L 110.95774 229.173996 
L 111.262408 230.482001 
L 111.567076 230.895055 
L 111.871744 231.721164 
L 112.176413 231.858848 
L 112.481081 232.891484 
L 112.785749 232.891484 
L 113.090418 233.098011 
L 113.395086 233.92412 
L 114.004423 233.992962 
L 114.309091 235.507495 
L 114.613759 235.507495 
L 114.918428 236.746658 
L 115.223096 236.8155 
L 115.527764 237.159712 
L 115.832432 237.159712 
L 116.137101 237.641609 
L 116.441769 237.641609 
L 117.355774 238.123505 
L 117.965111 238.53656 
L 118.574447 238.811929 
L 118.879115 239.087299 
L 119.183784 239.775723 
L 119.488452 239.775723 
L 119.79312 240.051092 
L 120.097789 240.532989 
L 120.402457 241.634467 
L 120.707125 241.703309 
L 121.011794 241.909836 
L 121.62113 242.116364 
L 121.925799 158.524214 
L 122.230467 172.709548 
L 122.535135 204.682842 
L 123.144472 223.315166 
L 123.44914 225.904553 
L 124.667813 228.719103 
L 125.27715 228.887976 
L 125.581818 229.732341 
L 125.886486 229.844923 
L 126.191155 230.351543 
L 126.495823 230.464125 
L 126.800491 230.970744 
L 127.10516 232.096564 
L 127.409828 232.321728 
L 127.714496 233.334966 
L 128.019165 233.391257 
L 128.628501 234.291913 
L 128.93317 234.348204 
L 129.237838 234.573368 
L 129.542506 234.573368 
L 130.151843 235.136278 
L 130.456511 235.474024 
L 130.761179 235.586606 
L 131.675184 236.31839 
L 132.893857 236.656136 
L 133.807862 236.937591 
L 134.721867 237.725665 
L 135.026536 237.894538 
L 135.331204 238.401157 
L 135.635872 238.401157 
L 135.940541 238.851485 
L 138.073219 239.69585 
L 138.377887 239.977305 
L 138.987224 240.146178 
L 139.291892 240.146178 
L 139.59656 240.483924 
L 139.901229 240.540215 
L 140.205897 240.934252 
L 140.815233 241.159416 
L 141.119902 241.328289 
L 141.42457 241.666036 
L 142.033907 241.8912 
L 142.643243 241.947491 
L 144.166585 242.116364 
L 144.471253 242.116364 
L 144.775921 204.286523 
L 145.08059 219.933902 
L 145.385258 223.66166 
L 145.689926 225.502528 
L 145.994595 225.502528 
L 146.299263 226.146832 
L 146.603931 226.146832 
L 146.9086 226.561028 
L 147.213268 227.849635 
L 147.517936 227.987701 
L 147.822604 229.230287 
L 148.431941 229.690504 
L 148.736609 229.690504 
L 149.650614 230.380829 
L 149.955283 231.163198 
L 150.259951 231.255241 
L 150.564619 231.623415 
L 150.869287 231.807502 
L 151.783292 232.773958 
L 152.087961 232.773958 
L 152.697297 233.37224 
L 153.001966 233.64837 
L 153.306634 234.430739 
L 154.220639 235.121065 
L 154.525307 235.213108 
L 154.829975 235.903434 
L 155.134644 236.271607 
L 155.439312 236.869889 
L 156.048649 237.053976 
L 157.57199 237.652258 
L 157.876658 237.744302 
L 158.181327 238.112475 
L 158.485995 238.158497 
L 159.095332 238.710758 
L 159.704668 238.894844 
L 160.314005 239.124953 
L 160.618673 239.58517 
L 162.142015 239.907322 
L 163.360688 240.367539 
L 163.970025 240.643669 
L 164.274693 240.827756 
L 165.493366 240.919799 
L 166.102703 241.011843 
L 167.016708 241.241951 
L 167.626044 241.426038 
L 168.844717 241.47206 
L 170.368059 241.840233 
L 171.8914 241.932277 
L 173.71941 242.116364 
L 174.328747 242.116364 
L 174.633415 211.503563 
L 174.938084 211.503563 
L 175.54742 211.616525 
L 175.852088 220.578206 
L 176.156757 220.578206 
L 176.461425 224.569543 
L 177.070762 225.473242 
L 177.37543 225.473242 
L 178.289435 226.226324 
L 178.594103 226.226324 
L 178.898771 227.544219 
L 179.20344 227.996068 
L 179.812776 227.996068 
L 180.117445 229.201 
L 180.422113 229.577541 
L 180.726781 230.820127 
L 181.03145 231.12136 
L 181.640786 232.778142 
L 182.250123 232.778142 
L 182.554791 233.229991 
L 182.859459 233.455916 
L 183.773464 233.455916 
L 184.078133 233.606532 
L 184.382801 233.606532 
L 184.687469 233.719495 
L 184.992138 234.736156 
L 185.296806 234.736156 
L 186.515479 235.075043 
L 186.820147 235.564547 
L 188.038821 235.752817 
L 188.343489 235.978742 
L 189.257494 236.016396 
L 190.171499 236.204667 
L 190.476167 236.543554 
L 191.085504 236.543554 
L 191.390172 236.731824 
L 191.69484 236.731824 
L 191.999509 236.882441 
L 192.608845 236.882441 
L 192.913514 237.447253 
L 194.436855 237.635523 
L 194.741523 237.823794 
L 196.264865 238.049719 
L 196.569533 238.313297 
L 197.17887 238.42626 
L 197.788206 238.689839 
L 199.616216 238.765147 
L 200.225553 238.878109 
L 203.881572 239.405267 
L 205.404914 239.668846 
L 205.709582 239.668846 
L 206.623587 239.89477 
L 207.232924 239.932425 
L 207.84226 240.045387 
L 209.060934 240.196003 
L 209.67027 240.384274 
L 210.584275 240.421928 
L 211.49828 240.534891 
L 211.802948 240.534891 
L 212.412285 240.760815 
L 213.32629 240.836124 
L 214.849631 241.099702 
L 215.1543 241.099702 
L 215.763636 241.212665 
L 217.286978 241.287973 
L 219.114988 241.438589 
L 220.028993 241.476244 
L 221.247666 241.664514 
L 224.599017 242.003401 
L 226.122359 242.041055 
L 226.731695 242.116364 
L 227.341032 242.116364 
L 227.6457 207.365033 
L 227.950369 214.050351 
L 228.255037 214.882165 
L 228.559705 216.176097 
L 228.864373 219.749815 
L 229.169042 220.489206 
L 229.47371 226.281094 
L 229.778378 229.700773 
L 230.387715 229.762389 
L 230.692383 231.271977 
L 230.997052 231.51844 
L 231.30172 233.305299 
L 232.215725 234.229537 
L 233.12973 234.660848 
L 233.434398 234.999735 
L 234.043735 235.122966 
L 234.348403 235.461853 
L 234.653071 235.615893 
L 235.262408 236.201243 
L 238.613759 236.540131 
L 238.918428 236.786594 
L 240.746437 237.094673 
L 241.051106 237.094673 
L 241.355774 237.371944 
L 241.965111 237.464368 
L 242.269779 237.710831 
L 243.488452 237.741639 
L 244.097789 237.834063 
L 245.62113 238.080526 
L 245.925799 238.142142 
L 246.230467 238.32699 
L 247.44914 238.511837 
L 248.363145 238.696685 
L 248.667813 238.696685 
L 249.27715 238.91234 
L 249.886486 238.91234 
L 250.191155 239.097188 
L 250.800491 239.097188 
L 251.714496 239.374459 
L 253.847174 239.744154 
L 254.456511 239.744154 
L 254.761179 239.959809 
L 256.893857 240.083041 
L 259.026536 240.113849 
L 259.635872 240.298697 
L 260.549877 240.39112 
L 262.073219 240.606776 
L 262.987224 240.791623 
L 265.119902 241.161318 
L 266.643243 241.253742 
L 269.08059 241.407782 
L 270.299263 241.469397 
L 271.213268 241.561821 
L 272.127273 241.561821 
L 272.431941 241.746669 
L 274.259951 241.839092 
L 275.173956 241.931516 
L 275.783292 242.054748 
L 281.267322 242.116364 
L 281.57199 217.843984 
L 281.876658 218.498634 
L 282.181327 219.581323 
L 282.485995 221.142409 
L 282.790663 221.142409 
L 283.095332 222.350993 
L 283.4 228.192478 
L 284.009337 228.293193 
L 284.314005 229.602492 
L 284.618673 229.627671 
L 284.923342 231.088042 
L 285.22801 231.717512 
L 286.142015 231.893764 
L 286.446683 232.951274 
L 287.360688 234.512361 
L 287.970025 234.940401 
L 288.579361 235.242547 
L 288.884029 235.292904 
L 289.493366 235.670587 
L 290.407371 235.771302 
L 290.712039 235.972732 
L 291.321376 236.048269 
L 291.626044 236.199342 
L 291.930713 236.199342 
L 292.235381 236.45113 
L 292.540049 236.476309 
L 292.844717 236.65256 
L 294.368059 236.828812 
L 294.672727 236.954706 
L 294.977396 237.332388 
L 295.8914 237.433104 
L 296.196069 237.458283 
L 296.805405 237.760428 
L 299.242752 238.264005 
L 300.461425 238.36472 
L 300.766093 238.389899 
L 301.37543 238.666866 
L 302.594103 238.767581 
L 303.508108 238.843117 
L 305.945455 239.170442 
L 306.859459 239.245979 
L 307.468796 239.321515 
L 324.225553 240.605635 
L 326.967568 240.70635 
L 341.896314 241.839397 
L 345.247666 241.914933 
L 346.466339 242.015648 
L 356.520393 242.116364 
L 356.825061 227.438711 
L 357.12973 229.726941 
L 357.434398 230.015546 
L 357.739066 230.11862 
L 358.043735 230.407225 
L 358.348403 231.561647 
L 358.653071 232.138858 
L 358.95774 233.29328 
L 359.262408 239.436455 
L 359.567076 239.580758 
L 363.223096 239.889978 
L 363.527764 240.302272 
L 365.965111 240.467189 
L 366.269779 240.364116 
L 366.574447 240.529033 
L 368.097789 240.611492 
L 368.707125 240.776409 
L 369.316462 240.879483 
L 369.62113 221.04101 
L 369.925799 229.518436 
L 370.230467 230.008167 
L 370.535135 232.051531 
L 370.839803 232.490601 
L 371.144472 234.145557 
L 371.44914 234.584627 
L 371.753808 234.804161 
L 372.363145 236.00316 
L 372.972482 237.033285 
L 373.27715 237.168384 
L 373.581818 237.523017 
L 373.581818 237.523017 
" style="fill:none;stroke:#1f77b4;stroke-linecap:square;stroke-width:1.5;"/>
   </g>
   <g id="patch_3">
    <path d="M 54 252 
L 54 34.56 
" style="fill:none;stroke:#000000;stroke-linecap:square;stroke-linejoin:miter;stroke-width:0.8;"/>
   </g>
   <g id="patch_4">
    <path d="M 388.8 252 
L 388.8 34.56 
" style="fill:none;stroke:#000000;stroke-linecap:square;stroke-linejoin:miter;stroke-width:0.8;"/>
   </g>
   <g id="patch_5">
    <path d="M 54 252 
L 388.8 252 
" style="fill:none;stroke:#000000;stroke-linecap:square;stroke-linejoin:miter;stroke-width:0.8;"/>
   </g>
   <g id="patch_6">
    <path d="M 54 34.56 
L 388.8 34.56 
" style="fill:none;stroke:#000000;stroke-linecap:square;stroke-linejoin:miter;stroke-width:0.8;"/>
   </g>
  </g>
 </g>
 <defs>
  <clipPath id="p8feb58ef65">
   <rect height="217.44" width="334.8" x="54" y="34.56"/>
  </clipPath>
 </defs>
</svg>
